<svg width="24" height="24" viewBox="0 0 24 24" fill="none" xmlns="http://www.w3.org/2000/svg">
<g clip-path="url(#clip0_602_2219)">
<path d="M21.4989 4.00008H18.8322V6.00008C18.8322 6.19268 18.7943 6.3834 18.7206 6.56135C18.6469 6.73929 18.5388 6.90097 18.4026 7.03717C18.2664 7.17336 18.1047 7.28139 17.9268 7.3551C17.7489 7.42881 17.5581 7.46674 17.3655 7.46674C17.1729 7.46674 16.9822 7.42881 16.8043 7.3551C16.6263 7.28139 16.4646 7.17336 16.3284 7.03717C16.1923 6.90097 16.0842 6.73929 16.0105 6.56135C15.9368 6.3834 15.8989 6.19268 15.8989 6.00008V4.00008H8.1322V6.00008C8.1322 6.38906 7.97768 6.76211 7.70263 7.03717C7.42757 7.31222 7.05452 7.46674 6.66554 7.46674C6.27655 7.46674 5.9035 7.31222 5.62845 7.03717C5.35339 6.76211 5.19887 6.38906 5.19887 6.00008V4.00008H2.5322C2.37355 3.99827 2.21615 4.0283 2.06931 4.08838C1.92246 4.14847 1.78916 4.23739 1.67728 4.34989C1.5654 4.46239 1.47722 4.59619 1.41794 4.74336C1.35867 4.89054 1.32952 5.0481 1.3322 5.20674V20.1267C1.32955 20.2826 1.35763 20.4374 1.41483 20.5824C1.47203 20.7274 1.55724 20.8597 1.66558 20.9717C1.77392 21.0838 1.90327 21.1734 2.04625 21.2355C2.18923 21.2975 2.34303 21.3308 2.49887 21.3334H21.4989C21.6547 21.3308 21.8085 21.2975 21.9515 21.2355C22.0945 21.1734 22.2238 21.0838 22.3322 20.9717C22.4405 20.8597 22.5257 20.7274 22.5829 20.5824C22.6401 20.4374 22.6682 20.2826 22.6655 20.1267V5.20674C22.6682 5.0509 22.6401 4.89607 22.5829 4.75108C22.5257 4.60609 22.4405 4.47379 22.3322 4.36174C22.2238 4.24968 22.0945 4.16007 21.9515 4.09802C21.8085 4.03596 21.6547 4.00268 21.4989 4.00008ZM6.66554 17.3334H5.3322V16.0001H6.66554V17.3334ZM6.66554 14.0001H5.3322V12.6667H6.66554V14.0001ZM6.66554 10.6667H5.3322V9.33341H6.66554V10.6667ZM10.6655 17.3334H9.3322V16.0001H10.6655V17.3334ZM10.6655 14.0001H9.3322V12.6667H10.6655V14.0001ZM10.6655 10.6667H9.3322V9.33341H10.6655V10.6667ZM14.6655 17.3334H13.3322V16.0001H14.6655V17.3334ZM14.6655 14.0001H13.3322V12.6667H14.6655V14.0001ZM14.6655 10.6667H13.3322V9.33341H14.6655V10.6667ZM18.6655 17.3334H17.3322V16.0001H18.6655V17.3334ZM18.6655 14.0001H17.3322V12.6667H18.6655V14.0001ZM18.6655 10.6667H17.3322V9.33341H18.6655V10.6667Z" fill="#353535"/>
<path d="M6.66667 6.66634C6.84348 6.66634 7.01305 6.5961 7.13807 6.47108C7.2631 6.34605 7.33333 6.17649 7.33333 5.99967V1.99967C7.33333 1.82286 7.2631 1.65329 7.13807 1.52827C7.01305 1.40325 6.84348 1.33301 6.66667 1.33301C6.48986 1.33301 6.32029 1.40325 6.19526 1.52827C6.07024 1.65329 6 1.82286 6 1.99967V5.99967C6 6.17649 6.07024 6.34605 6.19526 6.47108C6.32029 6.5961 6.48986 6.66634 6.66667 6.66634Z" fill="#353535"/>
<path d="M17.3346 6.66634C17.5114 6.66634 17.681 6.5961 17.806 6.47108C17.9311 6.34605 18.0013 6.17649 18.0013 5.99967V1.99967C18.0013 1.82286 17.9311 1.65329 17.806 1.52827C17.681 1.40325 17.5114 1.33301 17.3346 1.33301C17.1578 1.33301 16.9883 1.40325 16.8632 1.52827C16.7382 1.65329 16.668 1.82286 16.668 1.99967V5.99967C16.668 6.17649 16.7382 6.34605 16.8632 6.47108C16.9883 6.5961 17.1578 6.66634 17.3346 6.66634Z" fill="#353535"/>
</g>
<defs>
<clipPath id="clip0_602_2219">
<rect width="24" height="24" fill="white"/>
</clipPath>
</defs>
</svg>
