<svg width="27" height="27" viewBox="0 0 27 27" fill="none" xmlns="http://www.w3.org/2000/svg">
<g clip-path="url(#clip0_602_3585)">
<path d="M24.1877 4.49996H21.1877V6.74996C21.1877 6.96665 21.145 7.1812 21.0621 7.38139C20.9792 7.58158 20.8576 7.76347 20.7044 7.91669C20.5512 8.06991 20.3693 8.19145 20.1691 8.27437C19.9689 8.35729 19.7544 8.39996 19.5377 8.39996C19.321 8.39996 19.1065 8.35729 18.9063 8.27437C18.7061 8.19145 18.5242 8.06991 18.371 7.91669C18.2178 7.76347 18.0962 7.58158 18.0133 7.38139C17.9304 7.1812 17.8877 6.96665 17.8877 6.74996V4.49996H9.15019V6.74996C9.15019 7.18757 8.97635 7.60726 8.66692 7.91669C8.35748 8.22613 7.9378 8.39996 7.50019 8.39996C7.06259 8.39996 6.6429 8.22613 6.33347 7.91669C6.02403 7.60726 5.85019 7.18757 5.85019 6.74996V4.49996H2.85019C2.67171 4.49793 2.49463 4.53171 2.32943 4.59931C2.16423 4.66691 2.01427 4.76695 1.8884 4.89351C1.76254 5.02007 1.66333 5.17059 1.59665 5.33616C1.52997 5.50173 1.49717 5.679 1.50019 5.85746V22.6425C1.49721 22.8178 1.5288 22.992 1.59315 23.1551C1.6575 23.3182 1.75336 23.467 1.87524 23.5931C1.99712 23.7192 2.14264 23.82 2.30349 23.8898C2.46434 23.9596 2.63737 23.997 2.81269 24H24.1877C24.363 23.997 24.536 23.9596 24.6969 23.8898C24.8577 23.82 25.0033 23.7192 25.1251 23.5931C25.247 23.467 25.3429 23.3182 25.4072 23.1551C25.4716 22.992 25.5032 22.8178 25.5002 22.6425V5.85746C25.5032 5.68214 25.4716 5.50795 25.4072 5.34484C25.3429 5.18173 25.247 5.03289 25.1251 4.90683C25.0033 4.78077 24.8577 4.67996 24.6969 4.61015C24.536 4.54033 24.363 4.50289 24.1877 4.49996ZM7.50019 19.5H6.00019V18H7.50019V19.5ZM7.50019 15.75H6.00019V14.25H7.50019V15.75ZM7.50019 12H6.00019V10.5H7.50019V12ZM12.0002 19.5H10.5002V18H12.0002V19.5ZM12.0002 15.75H10.5002V14.25H12.0002V15.75ZM12.0002 12H10.5002V10.5H12.0002V12ZM16.5002 19.5H15.0002V18H16.5002V19.5ZM16.5002 15.75H15.0002V14.25H16.5002V15.75ZM16.5002 12H15.0002V10.5H16.5002V12ZM21.0002 19.5H19.5002V18H21.0002V19.5ZM21.0002 15.75H19.5002V14.25H21.0002V15.75ZM21.0002 12H19.5002V10.5H21.0002V12Z" fill="#FE9704"/>
<path d="M7.5 7.5C7.69891 7.5 7.88968 7.42098 8.03033 7.28033C8.17098 7.13968 8.25 6.94891 8.25 6.75V2.25C8.25 2.05109 8.17098 1.86032 8.03033 1.71967C7.88968 1.57902 7.69891 1.5 7.5 1.5C7.30109 1.5 7.11032 1.57902 6.96967 1.71967C6.82902 1.86032 6.75 2.05109 6.75 2.25V6.75C6.75 6.94891 6.82902 7.13968 6.96967 7.28033C7.11032 7.42098 7.30109 7.5 7.5 7.5Z" fill="#FE9704"/>
<path d="M19.5 7.5C19.6989 7.5 19.8897 7.42098 20.0303 7.28033C20.171 7.13968 20.25 6.94891 20.25 6.75V2.25C20.25 2.05109 20.171 1.86032 20.0303 1.71967C19.8897 1.57902 19.6989 1.5 19.5 1.5C19.3011 1.5 19.1103 1.57902 18.9697 1.71967C18.829 1.86032 18.75 2.05109 18.75 2.25V6.75C18.75 6.94891 18.829 7.13968 18.9697 7.28033C19.1103 7.42098 19.3011 7.5 19.5 7.5Z" fill="#FE9704"/>
</g>
<defs>
<clipPath id="clip0_602_3585">
<rect width="27" height="27" fill="white"/>
</clipPath>
</defs>
</svg>
