<svg width="45" height="43" viewBox="0 0 45 43" fill="none" xmlns="http://www.w3.org/2000/svg">
<path d="M12.5 27.5H35C36.375 27.5 37.5 28.625 37.5 30C37.5 31.375 36.375 32.5 35 32.5H10C8.625 32.5 7.5 31.375 7.5 30V5H2.5C1.125 5 0 3.875 0 2.5C0 1.125 1.125 0 2.5 0H10C11.375 0 12.5 1.125 12.5 2.5V7.5H45L35 25H12.5V27.5ZM11.25 35C13.325 35 15 36.675 15 38.75C15 40.825 13.325 42.5 11.25 42.5C9.175 42.5 7.5 40.825 7.5 38.75C7.5 36.675 9.175 35 11.25 35ZM33.75 35C35.825 35 37.5 36.675 37.5 38.75C37.5 40.825 35.825 42.5 33.75 42.5C31.675 42.5 30 40.825 30 38.75C30 36.675 31.675 35 33.75 35Z" fill="white"/>
</svg>
