<svg width="25" height="31" viewBox="0 0 25 31" fill="none" xmlns="http://www.w3.org/2000/svg">
<path d="M12.5 15.2241C11.316 15.2241 10.1805 14.8286 9.34327 14.1247C8.50606 13.4207 8.03571 12.4659 8.03571 11.4704C8.03571 10.4748 8.50606 9.52006 9.34327 8.8161C10.1805 8.11214 11.316 7.71666 12.5 7.71666C13.684 7.71666 14.8195 8.11214 15.6567 8.8161C16.4939 9.52006 16.9643 10.4748 16.9643 11.4704C16.9643 11.9633 16.8488 12.4515 16.6245 12.9069C16.4001 13.3623 16.0713 13.7761 15.6567 14.1247C15.2422 14.4732 14.75 14.7497 14.2084 14.9384C13.6668 15.127 13.0863 15.2241 12.5 15.2241ZM12.5 0.959961C9.18479 0.959961 6.00537 2.06731 3.66116 4.03839C1.31696 6.00948 0 8.68285 0 11.4704C0 19.3532 12.5 30.9898 12.5 30.9898C12.5 30.9898 25 19.3532 25 11.4704C25 8.68285 23.683 6.00948 21.3388 4.03839C18.9946 2.06731 15.8152 0.959961 12.5 0.959961Z" fill="#FE9704"/>
</svg>
