<svg width="33" height="34" viewBox="0 0 33 34" fill="none" xmlns="http://www.w3.org/2000/svg">
<path d="M32.601 11.4196L29.567 8.38235C29.3222 8.14061 28.9958 7.99945 28.6522 7.98671C28.3085 7.97397 27.9726 8.09058 27.7106 8.31353C27.3062 8.65816 26.7871 8.83811 26.2564 8.81771C25.7256 8.79731 25.2219 8.57806 24.845 8.20341C24.471 7.82617 24.2521 7.32205 24.2317 6.79091C24.2113 6.25977 24.391 5.74033 24.735 5.33549C24.9577 5.07323 25.0742 4.73696 25.0615 4.39298C25.0488 4.049 24.9078 3.72227 24.6663 3.47723L21.6295 0.436556C21.3728 0.180143 21.025 0.0361328 20.6625 0.0361328C20.2999 0.0361328 19.9521 0.180143 19.6954 0.436556L14.8587 5.27768C14.5601 5.57768 14.3349 5.9428 14.2007 6.34446C14.1746 6.42168 14.1311 6.49184 14.0735 6.54949C14.0159 6.60714 13.9458 6.65073 13.8687 6.67688C13.4673 6.81116 13.1025 7.03686 12.803 7.33622L0.400005 19.7522C0.14386 20.0091 0 20.3572 0 20.7202C0 21.0832 0.14386 21.4313 0.400005 21.6882L3.4375 24.7254C3.68229 24.9672 4.00867 25.1083 4.3523 25.1211C4.69592 25.1338 5.03184 25.0172 5.29382 24.7943C5.69732 24.4468 6.21707 24.2649 6.74891 24.2849C7.28076 24.3049 7.78541 24.5253 8.16175 24.9021C8.53809 25.2788 8.75831 25.784 8.77828 26.3164C8.79825 26.8488 8.61649 27.3691 8.26944 27.773C8.04672 28.0352 7.93024 28.3715 7.94297 28.7155C7.95569 29.0595 8.0967 29.3862 8.33819 29.6313L11.3722 32.6685C11.6289 32.9249 11.9767 33.0689 12.3393 33.0689C12.7018 33.0689 13.0496 32.9249 13.3063 32.6685L25.7093 20.2525C26.0081 19.9529 26.2336 19.588 26.3679 19.1864C26.3939 19.109 26.4375 19.0386 26.4952 18.9808C26.5529 18.923 26.6233 18.8794 26.7007 18.8533C27.1017 18.719 27.4662 18.4936 27.7656 18.1947L32.6017 13.3529C32.8569 13.096 33.0001 12.7484 33 12.3861C32.9999 12.0238 32.8564 11.6763 32.601 11.4196ZM16.9 9.37893C16.7978 9.48121 16.6765 9.56235 16.5431 9.61771C16.4096 9.67306 16.2665 9.70155 16.122 9.70155C15.9775 9.70155 15.8345 9.67306 15.701 9.61771C15.5675 9.56235 15.4462 9.48121 15.3441 9.37893L14.5527 8.58676C14.3515 8.37921 14.2399 8.10071 14.242 7.81145C14.2442 7.52219 14.36 7.2454 14.5644 7.0409C14.7687 6.83641 15.0453 6.72062 15.3343 6.71857C15.6232 6.71652 15.9014 6.82837 16.1086 7.02995L16.9 7.82143C17.0021 7.92369 17.0832 8.0451 17.1385 8.17872C17.1938 8.31234 17.2222 8.45555 17.2222 8.60018C17.2222 8.74481 17.1938 8.88803 17.1385 9.02165C17.0832 9.15527 17.0021 9.27667 16.9 9.37893ZM19.9251 12.4072C19.7188 12.6136 19.4391 12.7295 19.1475 12.7295C18.8559 12.7295 18.5762 12.6136 18.3699 12.4072L17.6136 11.6501C17.5115 11.5479 17.4304 11.4265 17.3751 11.2929C17.3198 11.1592 17.2914 11.016 17.2914 10.8714C17.2914 10.7268 17.3198 10.5836 17.3751 10.4499C17.4304 10.3163 17.5115 10.1949 17.6136 10.0926C17.8199 9.88611 18.0998 9.77007 18.3916 9.77007C18.536 9.77007 18.6791 9.79856 18.8126 9.85391C18.9461 9.90925 19.0673 9.99038 19.1695 10.0926L19.9258 10.8497C20.0283 10.952 20.1097 11.0735 20.1652 11.2072C20.2207 11.341 20.2494 11.4845 20.2494 11.6294C20.2495 11.7742 20.221 11.9177 20.1656 12.0515C20.1102 12.1854 20.0289 12.3069 19.9265 12.4093L19.9251 12.4072ZM22.9502 15.4355C22.8481 15.5378 22.7268 15.6189 22.5933 15.6743C22.4598 15.7296 22.3167 15.7581 22.1723 15.7581C22.0278 15.7581 21.8847 15.7296 21.7512 15.6743C21.6178 15.6189 21.4965 15.5378 21.3943 15.4355L20.6381 14.6784C20.4368 14.4709 20.3252 14.1924 20.3273 13.9031C20.3295 13.6139 20.4453 13.3371 20.6497 13.1326C20.8541 12.9281 21.1306 12.8123 21.4196 12.8102C21.7085 12.8082 21.9867 12.92 22.1939 13.1216L22.9502 13.8787C23.053 13.9808 23.1347 14.1022 23.1905 14.2359C23.2464 14.3697 23.2753 14.5131 23.2756 14.6581C23.2759 14.8031 23.2476 14.9467 23.1924 15.0806C23.1371 15.2146 23.056 15.3364 22.9536 15.4389L22.9502 15.4355ZM26.0049 18.5009C25.9027 18.6032 25.7815 18.6844 25.648 18.7397C25.5145 18.7951 25.3714 18.8236 25.2269 18.8236C25.0825 18.8236 24.9394 18.7951 24.8059 18.7397C24.6724 18.6844 24.5512 18.6032 24.449 18.5009L23.6625 17.7095C23.5582 17.6075 23.4751 17.4858 23.4182 17.3514C23.3613 17.2171 23.3316 17.0727 23.3309 16.9268C23.3302 16.7808 23.3585 16.6362 23.4142 16.5013C23.4698 16.3664 23.5517 16.2439 23.655 16.141C23.7583 16.038 23.8811 15.9567 24.0161 15.9016C24.1512 15.8466 24.2958 15.819 24.4416 15.8204C24.5873 15.8218 24.7314 15.8522 24.8653 15.9098C24.9993 15.9675 25.1205 16.0512 25.2218 16.1561L26.009 16.9469C26.1111 17.0492 26.1921 17.1706 26.2474 17.3043C26.3026 17.4379 26.331 17.5811 26.331 17.7258C26.3309 17.8704 26.3024 18.0136 26.247 18.1472C26.1917 18.2808 26.1105 18.4022 26.0083 18.5044L26.0049 18.5009Z" fill="#FE9704"/>
</svg>
